<svg xmlns="http://www.w3.org/2000/svg" viewBox="0 0 512 512" fill="none">
  <defs>
    <linearGradient id="bg" x1="80" y1="64" x2="432" y2="448" gradientUnits="userSpaceOnUse">
      <stop stop-color="#F58220"/>
      <stop offset="0.55" stop-color="#C4364A"/>
      <stop offset="1" stop-color="#8E1A31"/>
    </linearGradient>
  </defs>
  <rect x="32" y="32" width="448" height="448" rx="96" fill="url(#bg)"/>
  <path fill="#FFFFFF" d="M148 356V156h52c38 0 58 18 58 46 0 20-9 36-26 44l52 62h-62l-46-55h-28v55h-48zm48-98h36c16 0 25-8 25-21s-9-21-25-21h-36v42z"/>
  <path d="M296 340 L336 300 L368 318 L408 260" stroke="#FFFFFF" stroke-width="14" stroke-linecap="round" stroke-linejoin="round" opacity="0.9"/>
  <circle cx="408" cy="260" r="9" fill="#FFFFFF"/>
  <rect x="360" y="108" width="56" height="8" rx="2" fill="#FFFFFF" opacity="0.35"/>
  <rect x="360" y="124" width="40" height="8" rx="2" fill="#FFFFFF" opacity="0.25"/>
</svg>
